<?xml version="1.0" encoding="UTF-8" standalone="no"?>
<svg width="379px" height="107px" viewBox="0 0 379 107" version="1.1" xmlns="http://www.w3.org/2000/svg" xmlns:xlink="http://www.w3.org/1999/xlink">
    <!-- Generator: Sketch 43.1 (39012) - http://www.bohemiancoding.com/sketch -->
    <title>Group</title>
    <desc>Created with Sketch.</desc>
    <defs>
        <linearGradient x1="50%" y1="0%" x2="50%" y2="100%" id="linearGradient-1">
            <stop stop-color="#4533E1" offset="0%"></stop>
            <stop stop-color="#2FDF33" offset="100%"></stop>
        </linearGradient>
        <linearGradient x1="7.39204344%" y1="50%" x2="95.9630564%" y2="50%" id="linearGradient-2">
            <stop stop-color="#4533E1" offset="0%"></stop>
            <stop stop-color="#2FDF33" offset="100%"></stop>
        </linearGradient>
    </defs>
    <g id="Page-1" stroke="none" stroke-width="1" fill="none" fill-rule="evenodd">
        <g id="Group">
            <path d="M76.0774668,39.3117605 C74.1754668,39.6717605 69.3794668,41.2117605 64.6724668,46.7317605 C59.9684668,52.2517605 54.9004668,54.0617605 50.1024668,55.0517605 C46.9214668,55.7117605 41.9654668,56.3417605 39.5844668,58.5117605 C40.1834668,57.1117605 41.2144668,55.6717605 42.9524668,54.4217605 C48.7464668,50.2617605 55.2624668,47.2717605 55.2624668,34.7817605 C55.2624668,22.2917605 49.7404668,14.7817605 49.7404668,14.7817605 C49.7404668,14.7817605 49.0154668,13.9717605 49.6484668,15.2317605 C50.2834668,16.5017605 52.5454668,19.6717605 52.5454668,24.8317605 C52.5454668,29.9817605 45.5774668,36.4117605 41.5944668,38.5817605 C37.6124668,40.7517605 34.8084668,48.5417605 43.1344668,52.4317605 C43.1344668,52.4317605 39.2254668,55.6217605 38.2184668,58.9917605 C37.9644668,58.2717605 37.7564668,57.5717605 37.4624668,56.8317605 C32.9444668,45.5417605 32.9704668,35.6717605 33.0824668,32.9717605 C36.2344668,32.6517605 43.6174668,28.4817605 43.6174668,21.3617605 C43.6174668,17.9817605 43.2544668,15.9317605 40.7834668,10.9217605 C38.3114668,5.9117605 36.7074668,1.3817605 35.7104668,0.3917605 C34.7164668,-0.6082395 35.3054668,0.6217605 35.3054668,0.6217605 C35.3054668,0.6217605 36.7074668,3.3817605 36.7074668,5.6417605 C36.7074668,7.9017605 35.3054668,11.4817605 31.9574668,17.2217605 C28.6074668,22.9717605 29.8754668,28.4917605 30.1014668,29.9417605 C30.3254668,31.3917605 29.5584668,30.0717605 29.5584668,30.0717605 C29.5584668,30.0717605 27.4744668,25.9117605 29.2844668,20.3017605 C31.0964668,14.6917605 33.6294668,12.5217605 33.6294668,9.1717605 C33.6294668,5.8217605 30.7324668,2.2917605 28.9224668,0.7517605 C27.1134668,-0.7882395 28.2904668,0.7517605 28.2904668,0.7517605 C28.2904668,0.7517605 29.2844668,2.6517605 29.2844668,5.0917605 C29.2844668,11.5217605 22.4984668,13.0617605 22.4984668,21.6617605 C22.4984668,30.1617605 29.7904668,32.7017605 32.2744668,32.9717605 L32.2744668,33.0617605 C32.2744668,43.4017605 33.8934668,49.7817605 35.5154668,55.1317605 C32.6124668,49.6817605 27.9284668,45.0717605 27.9284668,45.0717605 C27.9284668,45.0717605 29.8554668,40.0017605 26.3594668,37.1717605 C21.6534668,33.4917605 17.6704668,36.2017605 12.2984668,32.2817605 C6.92846683,28.3517605 9.88746683,21.1817605 10.3704668,19.4317605 C10.8564668,17.6717605 10.1904668,18.9417605 10.1904668,18.9417605 C7.53646683,23.9517605 6.20746683,31.5517605 8.86246683,38.7917605 C11.5174668,46.0317605 16.3434668,48.2717605 20.8104668,48.2717605 C25.2754668,48.2717605 27.3864668,45.9717605 27.3864668,45.9717605 C30.5214668,48.2717605 33.9014668,54.3617605 33.9014668,54.3617605 C33.9014668,54.3617605 30.7054668,51.7717605 25.3354668,51.7717605 C19.9654668,51.7717605 17.5504668,55.0817605 17.5504668,55.0817605 C13.8664668,55.0817605 9.88746683,57.9817605 9.88746683,63.3517605 C9.88746683,68.7217605 17.0664668,69.6217605 17.0664668,76.5017605 C17.0664668,81.8717605 13.3254668,84.5917605 12.1804668,85.5617605 C11.0364668,86.5217605 12.1204668,85.9217605 12.1204668,85.9217605 C17.9764668,82.6017605 23.3454668,74.6917605 23.3454668,66.9717605 C23.3454668,59.2517605 18.7564668,55.4417605 18.7564668,55.4417605 C18.7564668,55.4417605 20.9284668,52.6117605 25.3934668,52.6117605 C32.7984668,52.6117605 35.8384668,57.0617605 37.0714668,60.2117605 C38.0464668,63.5717605 38.7934668,66.8917605 38.7934668,71.0717605 C38.7934668,87.1317605 30.1034668,102.39176 14.8974668,102.39176 C4.39746683,102.39176 0.416466826,94.8817605 0.416466826,94.8817605 C-0.400533174,93.6117605 0.236466826,95.3317605 0.236466826,95.3317605 C1.68146683,98.5017605 6.32946683,106.67176 16.4654668,106.67176 C26.6034668,106.67176 35.1714668,100.28176 38.5514668,90.7417605 C41.5604668,82.2517605 42.5294668,72.5117605 38.9634668,61.1117605 C39.4124668,59.8917605 40.3054668,58.5817605 42.1374668,58.5817605 C45.5774668,58.5817605 44.3094668,67.3617605 53.1804668,67.3617605 C62.0504668,67.3617605 64.9464668,55.1417605 66.2104668,50.2617605 C67.4794668,45.3717605 72.0044668,41.1217605 76.3494668,39.6717605 C76.3494668,39.6717605 77.9774668,38.9417605 76.0774668,39.3117605" id="Fill-196" fill="url(#linearGradient-1)"></path>
            <path d="M106,30 L125.368,30 L125.368,32.088 L108.376,32.088 L108.376,61.464 L122.56,61.464 L122.56,63.552 L108.376,63.552 L108.376,81.912 L125.368,81.912 L125.368,84 L106,84 L106,30 Z M143.872,64.344 L156.904,84 L154.24,84 L142.576,66.36 L130.984,84 L128.68,84 L141.424,64.56 L132.856,51.6 L135.52,51.6 L142.72,62.544 L149.92,51.6 L152.224,51.6 L143.872,64.344 Z M162.664,98.4 L162.664,51.6 L164.968,51.6 L164.968,59.52 C166.264006,56.8799868 168.291986,54.7680079 171.052,53.184 C173.812014,51.5999921 176.679985,50.808 179.656,50.808 C184.408024,50.808 188.451983,52.4759833 191.788,55.812 C195.124017,59.1480167 196.792,63.1439767 196.792,67.8 C196.792,72.4560233 195.124017,76.4519833 191.788,79.788 C188.451983,83.1240167 184.408024,84.792 179.656,84.792 C176.775986,84.792 173.968014,84.0120078 171.232,82.452 C168.495986,80.8919922 166.408007,78.7920132 164.968,76.152 L164.968,98.4 L162.664,98.4 Z M169.252,78.348 C172.204015,81.3000148 175.70798,82.776 179.764,82.776 C183.82002,82.776 187.287986,81.3000148 190.168,78.348 C193.048014,75.3959852 194.488,71.8920203 194.488,67.836 C194.488,63.7799797 193.036015,60.2640149 190.132,57.288 C187.227985,54.3119851 183.76002,52.824 179.728,52.824 C175.69598,52.824 172.204015,54.323985 169.252,57.324 C166.299985,60.324015 164.824,63.8399798 164.824,67.872 C164.824,71.9040202 166.299985,75.3959852 169.252,78.348 Z M219.832,84.864 L219.184,84.864 C214.623977,84.864 210.652017,83.1480172 207.268,79.716 C203.883983,76.2839828 202.192,72.2880228 202.192,67.728 C202.192,63.1679772 203.871983,59.2200167 207.232,55.884 C210.592017,52.5479833 214.743975,50.88 219.688,50.88 C224.632025,50.88 228.879982,52.8479803 232.432,56.784 L209.824,79.104 C212.944016,81.6000125 215.943986,82.848 218.824,82.848 C221.704014,82.848 224.283989,82.1880066 226.564,80.868 C228.844011,79.5479934 230.727993,77.784011 232.216,75.576 L232.216,79.248 C228.807983,82.9920187 224.680024,84.864 219.832,84.864 Z M208.924,57.324 C205.971985,60.2760148 204.496,63.6719808 204.496,67.512 C204.496,71.3520192 205.767987,74.7119856 208.312,77.592 L229.264,56.784 C226.287985,54.191987 222.892019,52.896 219.076,52.896 C215.259981,52.896 211.876015,54.3719852 208.924,57.324 Z M241.576,84 L239.272,84 L239.272,51.6 L241.576,51.6 L241.576,58.152 C244.024012,53.2559755 248.19997,50.808 254.104,50.808 C258.13602,50.808 261.519986,52.1999861 264.256,54.984 C266.992014,57.7680139 268.36,61.1519801 268.36,65.136 L268.36,84 L266.056,84 L266.056,65.136 C266.056,61.8239834 264.892012,58.9440122 262.564,56.496 C260.235988,54.0479878 257.416017,52.824 254.104,52.824 C250.791983,52.824 247.876013,54.0479878 245.356,56.496 C242.835987,58.9440122 241.576,61.8239834 241.576,65.136 L241.576,84 Z M284.056,52.752 C282.807994,52.752 281.704005,53.1599959 280.744,53.976 C279.783995,54.7920041 279.304,55.799994 279.304,57 C279.304,58.200006 279.843995,59.303995 280.924,60.312 C282.004005,61.320005 283.299992,62.2439958 284.812,63.084 C286.324008,63.9240042 287.847992,64.8239952 289.384,65.784 C290.920008,66.7440048 292.227995,67.9679926 293.308,69.456 C294.388005,70.9440074 294.928,72.6479904 294.928,74.568 C294.928,77.4000142 293.860011,79.81199 291.724,81.804 C289.587989,83.79601 287.008015,84.792 283.984,84.792 C282.06399,84.792 280.276008,84.3720042 278.62,83.532 C276.963992,82.6919958 275.752004,81.576007 274.984,80.184 L274.984,76.728 C276.808009,80.7600202 279.73598,82.776 283.768,82.776 C286.264012,82.776 288.363991,82.0080077 290.068,80.472 C291.772009,78.9359923 292.624,77.2200095 292.624,75.324 C292.624,73.4279905 292.084005,71.8320065 291.004,70.536 C289.923995,69.2399935 288.616008,68.1360046 287.08,67.224 C285.543992,66.3119954 284.020008,65.4120044 282.508,64.524 C280.995992,63.6359956 279.700005,62.5560064 278.62,61.284 C277.539995,60.0119936 277,58.5240085 277,56.82 C277,55.1159915 277.683993,53.6760059 279.052,52.5 C280.420007,51.3239941 282.183989,50.736 284.344,50.736 C286.504011,50.736 288.351992,51.5759916 289.888,53.256 L289.888,56.208 C288.351992,53.9039885 286.408012,52.752 284.056,52.752 Z M305.008,51.672 L305.008,84 L302.704,84 L302.704,51.672 L305.008,51.672 Z M301.768,41.808 C301.768,40.5119935 302.463993,39.864 303.856,39.864 C305.248007,39.864 305.944,40.5119935 305.944,41.808 C305.944,43.1040065 305.248007,43.752 303.856,43.752 C302.463993,43.752 301.768,43.1040065 301.768,41.808 Z M341.872,51.6 L343.96,51.6 L328.048,84.936 L312.064,51.6 L314.584,51.6 L328.264,80.04 L341.872,51.6 Z M366.28,84.864 L365.632,84.864 C361.071977,84.864 357.100017,83.1480172 353.716,79.716 C350.331983,76.2839828 348.64,72.2880228 348.64,67.728 C348.64,63.1679772 350.319983,59.2200167 353.68,55.884 C357.040017,52.5479833 361.191975,50.88 366.136,50.88 C371.080025,50.88 375.327982,52.8479803 378.88,56.784 L356.272,79.104 C359.392016,81.6000125 362.391986,82.848 365.272,82.848 C368.152014,82.848 370.731989,82.1880066 373.012,80.868 C375.292011,79.5479934 377.175993,77.784011 378.664,75.576 L378.664,79.248 C375.255983,82.9920187 371.128024,84.864 366.28,84.864 Z M355.372,57.324 C352.419985,60.2760148 350.944,63.6719808 350.944,67.512 C350.944,71.3520192 352.215987,74.7119856 354.76,77.592 L375.712,56.784 C372.735985,54.191987 369.340019,52.896 365.524,52.896 C361.707981,52.896 358.324015,54.3719852 355.372,57.324 Z" id="Expensive" fill="url(#linearGradient-2)"></path>
        </g>
    </g>
</svg>